<svg version="1.1" viewBox="0.0 0.0 356.25984251968504 471.98687664041995" fill="none" stroke="none" stroke-linecap="square" stroke-miterlimit="10" xmlns:xlink="http://www.w3.org/1999/xlink" xmlns="http://www.w3.org/2000/svg"><clipPath id="p.0"><path d="m0 0l356.25986 0l0 471.98688l-356.25986 0l0 -471.98688z" clip-rule="nonzero"/></clipPath><g clip-path="url(#p.0)"><path fill="#000000" fill-opacity="0.0" d="m0 0l356.25986 0l0 471.98688l-356.25986 0z" fill-rule="evenodd"/><path fill="#000000" fill-opacity="0.0" d="m6.0577426 5.9553804l284.88077 0l56.97751 56.97752l0 399.8729l-341.85828 0z" fill-rule="evenodd"/><path stroke="#f3f3f3" stroke-width="8.0" stroke-linejoin="round" stroke-linecap="butt" d="m6.0577426 5.9553804l284.88077 0l56.97751 56.97752l0 399.8729l-341.85828 0z" fill-rule="evenodd"/><path fill="#000000" fill-opacity="0.0" d="m291.58792 61.545933l0 -55.590553l56.314972 55.590553z" fill-rule="evenodd"/><path stroke="#f3f3f3" stroke-width="8.0" stroke-linejoin="round" stroke-linecap="butt" d="m291.58792 61.545933l0 -55.590553l56.314972 55.590553z" fill-rule="evenodd"/><path fill="#efefef" d="m108.01575 152.38058l133.48032 82.0l-133.48032 82.0z" fill-rule="evenodd"/><path stroke="#efefef" stroke-width="8.0" stroke-linejoin="round" stroke-linecap="butt" d="m108.01575 152.38058l133.48032 82.0l-133.48032 82.0z" fill-rule="evenodd"/><path fill="#efefef" d="m274.70074 42.6168l0 0c1.229248 0 2.225769 0.99650955 2.225769 2.2257652l0 8.902798l0 0c0 0.59030914 -0.23449707 1.1564445 -0.6519165 1.5738564c-0.41741943 0.4174118 -0.983551 0.6519127 -1.5738525 0.6519127l-251.57997 0c-1.2292557 0 -2.2257652 -0.99650955 -2.2257652 -2.225769l0 -8.902798c0 -1.2292557 0.99650955 -2.2257652 2.2257652 -2.2257652z" fill-rule="evenodd"/><path stroke="#efefef" stroke-width="1.0" stroke-linejoin="round" stroke-linecap="butt" d="m274.70074 42.6168l0 0c1.229248 0 2.225769 0.99650955 2.225769 2.2257652l0 8.902798l0 0c0 0.59030914 -0.23449707 1.1564445 -0.6519165 1.5738564c-0.41741943 0.4174118 -0.983551 0.6519127 -1.5738525 0.6519127l-251.57997 0c-1.2292557 0 -2.2257652 -0.99650955 -2.2257652 -2.225769l0 -8.902798c0 -1.2292557 0.99650955 -2.2257652 2.2257652 -2.2257652z" fill-rule="evenodd"/><path fill="#efefef" d="m326.40414 84.35838l0 0c1.2292786 0 2.225769 0.99650574 2.225769 2.2257614l0 8.9028015l0 0c0 0.59030914 -0.23449707 1.1564407 -0.6519165 1.5738525c-0.41738892 0.4174118 -0.9835205 0.6519089 -1.5738525 0.6519089l-303.29648 0c-1.2292576 0 -2.2257671 -0.99650574 -2.2257671 -2.2257614l0 -8.9028015c0 -1.2292557 0.99650955 -2.2257614 2.2257671 -2.2257614z" fill-rule="evenodd"/><path stroke="#efefef" stroke-width="1.0" stroke-linejoin="round" stroke-linecap="butt" d="m326.40414 84.35838l0 0c1.2292786 0 2.225769 0.99650574 2.225769 2.2257614l0 8.9028015l0 0c0 0.59030914 -0.23449707 1.1564407 -0.6519165 1.5738525c-0.41738892 0.4174118 -0.9835205 0.6519089 -1.5738525 0.6519089l-303.29648 0c-1.2292576 0 -2.2257671 -0.99650574 -2.2257671 -2.2257614l0 -8.9028015c0 -1.2292557 0.99650955 -2.2257614 2.2257671 -2.2257614z" fill-rule="evenodd"/><path fill="#efefef" d="m328.3569 329.3071l0 0c1.382904 0 2.5039978 1.1210632 2.5039978 2.5039673l0 10.0156555l0 0c0 0.664093 -0.26382446 1.3009949 -0.73339844 1.7705994c-0.4696045 0.46957397 -1.1065063 0.73339844 -1.7705994 0.73339844l-302.74005 0c-1.3829136 0 -2.5039864 -1.1210938 -2.5039864 -2.5039978l0 -10.0156555c0 -1.382904 1.1210728 -2.5039673 2.5039864 -2.5039673z" fill-rule="evenodd"/><path stroke="#efefef" stroke-width="1.0" stroke-linejoin="round" stroke-linecap="butt" d="m328.3569 329.3071l0 0c1.382904 0 2.5039978 1.1210632 2.5039978 2.5039673l0 10.0156555l0 0c0 0.664093 -0.26382446 1.3009949 -0.73339844 1.7705994c-0.4696045 0.46957397 -1.1065063 0.73339844 -1.7705994 0.73339844l-302.74005 0c-1.3829136 0 -2.5039864 -1.1210938 -2.5039864 -2.5039978l0 -10.0156555c0 -1.382904 1.1210728 -2.5039673 2.5039864 -2.5039673z" fill-rule="evenodd"/><path fill="#efefef" d="m328.3569 372.6936l0 0c1.382904 0 2.5039978 1.1210632 2.5039978 2.5039673l0 10.0156555l0 0c0 0.664093 -0.26382446 1.3009949 -0.73339844 1.7705688c-0.4696045 0.4696045 -1.1065063 0.73342896 -1.7705994 0.73342896l-302.74005 0c-1.3829136 0 -2.5039864 -1.1210938 -2.5039864 -2.5039978l0 -10.0156555c0 -1.382904 1.1210728 -2.5039673 2.5039864 -2.5039673z" fill-rule="evenodd"/><path stroke="#efefef" stroke-width="1.0" stroke-linejoin="round" stroke-linecap="butt" d="m328.3569 372.6936l0 0c1.382904 0 2.5039978 1.1210632 2.5039978 2.5039673l0 10.0156555l0 0c0 0.664093 -0.26382446 1.3009949 -0.73339844 1.7705688c-0.4696045 0.4696045 -1.1065063 0.73342896 -1.7705994 0.73342896l-302.74005 0c-1.3829136 0 -2.5039864 -1.1210938 -2.5039864 -2.5039978l0 -10.0156555c0 -1.382904 1.1210728 -2.5039673 2.5039864 -2.5039673z" fill-rule="evenodd"/><path fill="#efefef" d="m328.3569 416.08008l0 0c1.382904 0 2.5039978 1.1210938 2.5039978 2.5039978l0 10.0156555l0 0c0 0.664093 -0.26382446 1.3009949 -0.73339844 1.7705688c-0.4696045 0.4696045 -1.1065063 0.73339844 -1.7705994 0.73339844l-302.74005 0c-1.3829136 0 -2.5039864 -1.1210632 -2.5039864 -2.5039673l0 -10.0156555c0 -1.382904 1.1210728 -2.5039978 2.5039864 -2.5039978z" fill-rule="evenodd"/><path stroke="#efefef" stroke-width="1.0" stroke-linejoin="round" stroke-linecap="butt" d="m328.3569 416.08008l0 0c1.382904 0 2.5039978 1.1210938 2.5039978 2.5039978l0 10.0156555l0 0c0 0.664093 -0.26382446 1.3009949 -0.73339844 1.7705688c-0.4696045 0.4696045 -1.1065063 0.73339844 -1.7705994 0.73339844l-302.74005 0c-1.3829136 0 -2.5039864 -1.1210632 -2.5039864 -2.5039673l0 -10.0156555c0 -1.382904 1.1210728 -2.5039978 2.5039864 -2.5039978z" fill-rule="evenodd"/><path fill="#efefef" d="m326.40414 126.09996l0 0c1.2292786 0 2.225769 0.99651337 2.225769 2.225769l0 8.9028015l0 0c0 0.5903015 -0.23449707 1.1564331 -0.6519165 1.5738525c-0.41738892 0.41740417 -0.9835205 0.65190125 -1.5738525 0.65190125l-303.29648 0c-1.2292576 0 -2.2257671 -0.99650574 -2.2257671 -2.2257538l0 -8.9028015c0 -1.2292557 0.99650955 -2.225769 2.2257671 -2.225769z" fill-rule="evenodd"/><path stroke="#efefef" stroke-width="1.0" stroke-linejoin="round" stroke-linecap="butt" d="m326.40414 126.09996l0 0c1.2292786 0 2.225769 0.99651337 2.225769 2.225769l0 8.9028015l0 0c0 0.5903015 -0.23449707 1.1564331 -0.6519165 1.5738525c-0.41738892 0.41740417 -0.9835205 0.65190125 -1.5738525 0.65190125l-303.29648 0c-1.2292576 0 -2.2257671 -0.99650574 -2.2257671 -2.2257538l0 -8.9028015c0 -1.2292557 0.99650955 -2.225769 2.2257671 -2.225769z" fill-rule="evenodd"/></g></svg>